<svg xmlns="http://www.w3.org/2000/svg" viewBox="0 0 64 64" role="img" aria-label="GOOD® COIN">
  <defs>
    <linearGradient id="face" x1="0" y1="0" x2="1" y2="1">
      <stop offset="0" stop-color="#0000ff"/>
      <stop offset=".38" stop-color="#2f4dff"/>
      <stop offset=".62" stop-color="#aeb6c6"/>
      <stop offset=".78" stop-color="#ffffff"/>
      <stop offset="1" stop-color="#c9ced6"/>
    </linearGradient>
    <linearGradient id="rim" x1="1" y1="0" x2="0" y2="1">
      <stop offset="0" stop-color="#ffffff"/>
      <stop offset=".35" stop-color="#c9ced6"/>
      <stop offset=".7" stop-color="#3a52e8"/>
      <stop offset="1" stop-color="#0000b8"/>
    </linearGradient>
    <linearGradient id="stamp" gradientUnits="userSpaceOnUse" x1="18" y1="18" x2="46" y2="46">
      <stop offset="0" stop-color="#ffffff"/>
      <stop offset=".55" stop-color="#dfe3ea"/>
      <stop offset="1" stop-color="#9aa3b5"/>
    </linearGradient>
    <radialGradient id="shine" cx=".32" cy=".26" r=".5">
      <stop offset="0" stop-color="#fff" stop-opacity=".35"/>
      <stop offset="1" stop-color="#fff" stop-opacity="0"/>
    </radialGradient>
  </defs>
  <circle cx="32" cy="32" r="31" fill="url(#rim)"/>
  <circle cx="32" cy="32" r="26" fill="url(#face)"/>
  <circle cx="32" cy="32" r="26" fill="none" stroke="#00007a" stroke-opacity=".35" stroke-width="1"/>
  <path fill="#00006e" fill-opacity=".55" d="M26.5 19.5h7.02v7.02h-7.02zM33.5 19.5h7.02v7.02h-7.02zM40.5 19.5h7.02v7.02h-7.02zM19.5 26.5h7.02v7.02h-7.02zM19.5 33.5h7.02v7.02h-7.02zM40.5 33.5h7.02v7.02h-7.02zM26.5 40.5h7.02v7.02h-7.02zM33.5 40.5h7.02v7.02h-7.02zM40.5 40.5h7.02v7.02h-7.02z"/>
  <path fill="url(#stamp)" shape-rendering="crispEdges" d="M25 18h7.02v7.02h-7.02zM32 18h7.02v7.02h-7.02zM39 18h7.02v7.02h-7.02zM18 25h7.02v7.02h-7.02zM18 32h7.02v7.02h-7.02zM39 32h7.02v7.02h-7.02zM25 39h7.02v7.02h-7.02zM32 39h7.02v7.02h-7.02zM39 39h7.02v7.02h-7.02z"/>
  <circle cx="32" cy="32" r="26" fill="url(#shine)"/>
</svg>
